<?xml version="1.0" encoding="UTF-8"?>
<svg width="11px" height="6px" viewBox="0 0 11 6" version="1.1" xmlns="http://www.w3.org/2000/svg" xmlns:xlink="http://www.w3.org/1999/xlink">
    <!-- Generator: Sketch 47 (45396) - http://www.bohemiancoding.com/sketch -->
    <title>down</title>
    <desc>Created with Sketch.</desc>
    <defs></defs>
    <g id="Templates-模板页面" stroke="none" stroke-width="1" fill="none" fill-rule="evenodd">
        <g id="标准表格（表格查询）" transform="translate(-1243.000000, -223.000000)" fill="#1890FF">
            <g id="Group-7" transform="translate(1210.000000, 215.000000)">
                <path d="M38.0447517,12.8503784 L33.8171031,8.15509903 L33.8171031,8.15509903 C33.6438763,7.96271111 33.3474869,7.947178 33.155099,8.12040486 L33.155099,8.12040486 L33.155099,8.12040486 C32.9627111,8.29363172 32.947178,8.59002105 33.1204049,8.78240897 L37.6786502,13.8448533 L37.6786502,13.8448533 C37.7754413,13.9523507 37.9106844,14.0046331 38.0447517,13.9996237 C38.178819,14.0046331 38.314062,13.9523507 38.4108531,13.8448533 L38.4108531,13.8448533 L42.9690985,8.78240897 C43.1423254,8.59002105 43.1267923,8.29363172 42.9344044,8.12040486 L42.9344044,8.12040486 L42.9344044,8.12040486 C42.7420164,7.947178 42.4456271,7.96271111 42.2724002,8.15509903 L42.2724002,8.15509903 L38.0447517,12.8503784 Z" id="down"></path>
            </g>
        </g>
    </g>
</svg>