<?xml version="1.0" encoding="UTF-8"?>
<svg width="10px" height="6px" viewBox="0 0 10 6" version="1.1" xmlns="http://www.w3.org/2000/svg" xmlns:xlink="http://www.w3.org/1999/xlink">
    <!-- Generator: Sketch 47 (45396) - http://www.bohemiancoding.com/sketch -->
    <title>Shape Copy 2</title>
    <desc>Created with Sketch.</desc>
    <defs></defs>
    <g id="Templates-模板页面" stroke="none" stroke-width="1" fill="none" fill-rule="evenodd" fill-opacity="0.65">
        <g id="工作台" transform="translate(-230.000000, -213.000000)" fill="#FFFFFF">
            <path d="M239.87489,218.165272 L235.432165,213.191306 C235.323996,213.07042 235.161092,213 234.987762,213 C234.815735,213 234.651527,213.07042 234.544662,213.191306 L230.125395,218.144146 C229.928607,218.364794 229.967704,218.68755 230.212712,218.864773 C230.45772,219.041995 230.81611,219.006785 231.012898,218.786137 L234.989065,214.330929 L238.987387,218.808437 C239.184175,219.029085 239.542565,219.064295 239.787573,218.887072 C239.927019,218.784964 240,218.637083 240,218.486854 C240,218.374183 239.958297,218.260338 239.87489,218.165272 Z" id="Shape-Copy-2" transform="translate(235.000000, 216.000000) scale(1, -1) translate(-235.000000, -216.000000) "></path>
        </g>
    </g>
</svg>