<?xml version="1.0" encoding="UTF-8"?>
<svg width="10px" height="6px" viewBox="0 0 10 6" version="1.1" xmlns="http://www.w3.org/2000/svg" xmlns:xlink="http://www.w3.org/1999/xlink">
    <!-- Generator: Sketch 47 (45396) - http://www.bohemiancoding.com/sketch -->
    <title>Shape Copy 4</title>
    <desc>Created with Sketch.</desc>
    <defs></defs>
    <g id="Templates-模板页面" stroke="none" stroke-width="1" fill="none" fill-rule="evenodd" fill-opacity="0.65">
        <g id="工作台" transform="translate(-230.000000, -267.000000)" fill="#FFFFFF">
            <path d="M239.87489,272.165272 L235.432165,267.191306 C235.323996,267.07042 235.161092,267 234.987762,267 C234.815735,267 234.651527,267.07042 234.544662,267.191306 L230.125395,272.144146 C229.928607,272.364794 229.967704,272.68755 230.212712,272.864773 C230.45772,273.041995 230.81611,273.006785 231.012898,272.786137 L234.989065,268.330929 L238.987387,272.808437 C239.184175,273.029085 239.542565,273.064295 239.787573,272.887072 C239.927019,272.784964 240,272.637083 240,272.486854 C240,272.374183 239.958297,272.260338 239.87489,272.165272 Z" id="Shape-Copy-4" transform="translate(235.000000, 270.000000) scale(1, -1) translate(-235.000000, -270.000000) "></path>
        </g>
    </g>
</svg>