<?xml version="1.0" encoding="UTF-8"?>
<svg width="11px" height="7px" viewBox="0 0 11 7" version="1.1" xmlns="http://www.w3.org/2000/svg" xmlns:xlink="http://www.w3.org/1999/xlink">
    <!-- Generator: Sketch 47 (45396) - http://www.bohemiancoding.com/sketch -->
    <title>Shape</title>
    <desc>Created with Sketch.</desc>
    <defs></defs>
    <g id="Templates-模板页面" stroke="none" stroke-width="1" fill="none" fill-rule="evenodd">
        <g id="工作台" transform="translate(-34.000000, -149.000000)" fill-rule="nonzero" fill="#FFFFFF">
            <g id="Group-3" transform="translate(33.000000, 142.000000)">
                <g id="Group-2">
                    <path d="M11.3187067,7.97765363 L11.3187067,7.97765363 C11.0199769,7.97765363 10.778291,8.22949721 10.778291,8.54078212 L10.778291,12.873743 L8.63163972,12.873743 L8.63163972,9.11955307 C8.63163972,8.49698324 8.1482679,7.99329609 7.55080831,7.99329609 L5.44919169,7.99329609 C4.8517321,7.99329609 4.36836028,8.49698324 4.36836028,9.11955307 L4.36836028,12.873743 L2.22170901,12.873743 L2.22170901,8.54078212 C2.22170901,8.22949721 1.98002309,7.97765363 1.6812933,7.97765363 L1.6812933,7.97765363 C1.38256351,7.97765363 1.1408776,8.22949721 1.1408776,8.54078212 L1.1408776,12.873743 C1.1408776,13.4963128 1.62424942,14 2.22170901,14 L10.778291,14 C11.3757506,14 11.8591224,13.4963128 11.8591224,12.873743 L11.8591224,8.54078212 C11.8591224,8.22949721 11.6174365,7.97765363 11.3187067,7.97765363 Z M5.44919169,9.11955307 L7.55080831,9.11955307 L7.55080831,12.873743 L5.44919169,12.873743 L5.44919169,9.11955307 Z" id="Shape"></path>
                </g>
            </g>
        </g>
    </g>
</svg>