<?xml version="1.0" encoding="UTF-8"?>
<svg width="13px" height="13px" viewBox="0 0 13 13" version="1.1" xmlns="http://www.w3.org/2000/svg" xmlns:xlink="http://www.w3.org/1999/xlink">
    <!-- Generator: Sketch 47 (45396) - http://www.bohemiancoding.com/sketch -->
    <title>Shape</title>
    <desc>Created with Sketch.</desc>
    <defs></defs>
    <g id="Templates-模板页面" stroke="none" stroke-width="1" fill="none" fill-rule="evenodd" opacity="0.65">
        <g id="工作台" transform="translate(-34.000000, -196.000000)" fill-rule="nonzero" fill="#FFFFFF">
            <g id="Group-4" transform="translate(33.000000, 195.000000)">
                <g id="inbox" transform="translate(1.000000, 1.000000)">
                    <path d="M12.9688,5.373219 L12.9653333,5.35949868 L11.0205333,0.469920844 C10.9338667,0.193799472 10.6756,0.00343007916 10.3826667,0.00343007916 L2.49946667,0.00343007916 C2.2048,0.00343007916 1.94306667,0.197229551 1.85986667,0.476781003 L0.0416,5.31662269 L0.0364,5.32862797 L0.0329333333,5.34234828 C0.0104,5.42638522 0.00346666667,5.5121372 0.0156,5.59617414 C0.0138666667,5.62361478 0.0121333333,5.65105541 0.0121333333,5.67849604 L0.0121333333,11.9538259 C0.0121333333,12.5283641 0.485333333,12.9965699 1.066,12.9965699 L11.9374667,12.9965699 C12.5181333,12.9965699 12.9913333,12.5283641 12.9930667,11.9538259 L12.9930667,5.67849604 C12.9930667,5.65620053 12.9930667,5.63390501 12.9913333,5.61503958 C12.9982667,5.53100264 12.9913333,5.45039578 12.9688,5.373219 Z M7.8416,4.63575198 L7.8364,4.90501319 C7.82253333,5.67506596 7.2852,6.19300792 6.5,6.19300792 C6.11693333,6.19300792 5.7876,6.07124011 5.55013333,5.83970976 C5.31266667,5.60817942 5.18266667,5.28575198 5.17573333,4.90501319 L5.17053333,4.63575198 L1.60333333,4.63575198 L2.98133333,1.32058047 L9.9008,1.32058047 L11.3169333,4.63575198 L7.8416,4.63575198 Z M1.3416,5.95290237 L4.06813333,5.95290237 C4.48933333,6.93218997 5.38546667,7.51015831 6.50173333,7.51015831 C7.08586667,7.51015831 7.6284,7.34894459 8.06693333,7.04366755 C8.45173333,6.77612137 8.7516,6.40224274 8.94573333,5.95290237 L11.6584,5.95290237 L11.6584,11.6794195 L1.3416,11.6794195 L1.3416,5.95290237 Z" id="Shape"></path>
                </g>
            </g>
        </g>
    </g>
</svg>