<?xml version="1.0" encoding="UTF-8"?>
<svg width="12px" height="14px" viewBox="0 0 12 14" version="1.1" xmlns="http://www.w3.org/2000/svg" xmlns:xlink="http://www.w3.org/1999/xlink">
    <!-- Generator: Sketch 47 (45396) - http://www.bohemiancoding.com/sketch -->
    <title>Shape</title>
    <desc>Created with Sketch.</desc>
    <defs></defs>
    <g id="Templates-模板页面" stroke="none" stroke-width="1" fill="none" fill-rule="evenodd" opacity="0.65">
        <g id="工作台" transform="translate(-34.000000, -249.000000)" fill-rule="nonzero" fill="#FFFFFF">
            <g id="Group-5" transform="translate(33.000000, 249.000000)">
                <g id="copy" transform="translate(1.000000, 0.000000)">
                    <path d="M11.746875,2.853125 L9.2125,0.259375 C9.0515625,0.09375 8.8296875,0 8.6015625,0 L3.64375,0 C3.3765625,0 3.11875,0.0984375 2.9171875,0.2765625 C2.74375,0.4296875 2.621875,0.6328125 2.565625,0.8578125 L1.6296875,0.8578125 C0.73125,0.8578125 0,1.60625 0,2.525 L0,12.33125 C0,13.2515625 0.73125,13.9984375 1.6296875,13.9984375 L9.5625,13.9984375 C10.4609375,13.9984375 11.1921875,13.25 11.1921875,12.33125 L11.1921875,11.35 C11.665625,11.2140625 12,10.7703125 12,10.2578125 L12,3.478125 C12,3.24375 11.9109375,3.021875 11.746875,2.853125 Z M9.128125,0.3453125 L10.3953125,1.6421875 L9.128125,0.3453125 C9.1125,0.328125 9.0953125,0.3125 9.078125,0.2984375 C9.09375,0.3140625 9.1109375,0.3296875 9.128125,0.3453125 Z M10.6625,3.13125 L10.6625,3.13125 L9.61875,2.0640625 L10.6625,3.13125 Z M8.6953125,1.2921875 L10.3734375,3.009375 L8.6953125,3.009375 L8.6953125,1.2921875 Z M8.575,0.9953125 L8.575,0.9953125 L8.575,3.13125 L8.575,3.13125 L8.575,0.9953125 Z M1.20625,13.815625 C1.24021226,13.8513393 1.27228774,13.8870536 1.30625,13.915625 C1.27228774,13.8870536 1.23832547,13.8513393 1.20625,13.815625 Z M1.6296875,13.9440625 C1.5640625,13.9440625 1.5,13.9140625 1.4375,13.8640625 C1.5,13.9240625 1.5640625,13.9440625 1.6296875,13.9440625 L1.6296875,13.9440625 Z M10.1140625,12.334375 C10.1140625,12.64375 9.8671875,12.896875 9.5640625,12.896875 L1.6296875,12.896875 C1.3265625,12.896875 1.0796875,12.6453125 1.0796875,12.334375 L1.0796875,2.528125 C1.0796875,2.21875 1.3265625,1.965625 1.6296875,1.965625 L2.5328125,1.965625 L2.5328125,10.259375 C2.5328125,10.8859375 3.03125,11.396875 3.64375,11.396875 L10.1140625,11.396875 L10.1140625,12.334375 Z M10.921875,10.2578125 C10.921875,10.275 10.9078125,10.2890625 10.890625,10.2890625 L3.64375,10.2890625 C3.6265625,10.2890625 3.6125,10.275 3.6125,10.2578125 L3.6125,1.1375 C3.6125,1.1203125 3.6265625,1.10625 3.64375,1.10625 L7.559375,1.10625 L7.559375,3.5625 C7.559375,3.8671875 7.8015625,4.115625 8.1,4.115625 L8.5765625,4.115625 L10.921875,4.115625 L10.921875,10.2578125 Z M11.0734375,11.315625 L11.0734375,11.315625 C11.1203125,11.290625 11.1671875,11.2572917 11.2109375,11.215625 C11.165625,11.2614583 11.1203125,11.2947917 11.0734375,11.315625 Z" id="Shape"></path>
                </g>
            </g>
        </g>
    </g>
</svg>