<?xml version="1.0" encoding="UTF-8"?>
<svg width="5px" height="2px" viewBox="0 0 5 2" version="1.1" xmlns="http://www.w3.org/2000/svg" xmlns:xlink="http://www.w3.org/1999/xlink">
    <!-- Generator: Sketch 47 (45396) - http://www.bohemiancoding.com/sketch -->
    <title>Shape</title>
    <desc>Created with Sketch.</desc>
    <defs></defs>
    <g id="Templates-模板页面" stroke="none" stroke-width="1" fill="none" fill-rule="evenodd" opacity="0.65">
        <g id="工作台" transform="translate(-39.000000, -255.000000)" fill-rule="nonzero" fill="#FFFFFF">
            <g id="Group-5" transform="translate(33.000000, 249.000000)">
                <g id="copy" transform="translate(1.000000, 0.000000)">
                    <path d="M8.934375,6.878125 L5.59375,6.878125 C5.2953125,6.878125 5.053125,7.1265625 5.053125,7.43125 C5.053125,7.7359375 5.2953125,7.984375 5.59375,7.984375 L8.934375,7.984375 C9.2328125,7.984375 9.475,7.7359375 9.475,7.43125 C9.475,7.1265625 9.2328125,6.878125 8.934375,6.878125 Z M5.1734375,7.43125 C5.1734375,7.421875 5.1734375,7.4109375 5.18177083,7.4015625 C5.1734375,7.4109375 5.1734375,7.4203125 5.1734375,7.43125 C5.1734375,7.4765625 5.20677083,7.51875 5.2734375,7.559375 C5.20677083,7.51875 5.1734375,7.475 5.1734375,7.43125 Z M8.934375,7 L5.59375,7 C5.571875,7 5.55,7.01 5.5296875,7.03 C5.55,7.01 5.571875,7 5.59375,7 L8.934375,7 C8.9546875,7 8.975,7.01 8.9953125,7.03 C8.975,7.01 8.9546875,7 8.934375,7 Z M9.125,7.875 C9.15921053,7.84583333 9.19342105,7.8125 9.225,7.775 C9.19605263,7.8125 9.16184211,7.84583333 9.125,7.875 Z" id="Shape"></path>
                </g>
            </g>
        </g>
    </g>
</svg>