<?xml version="1.0" encoding="UTF-8"?>
<svg width="5px" height="2px" viewBox="0 0 5 2" version="1.1" xmlns="http://www.w3.org/2000/svg" xmlns:xlink="http://www.w3.org/1999/xlink">
    <!-- Generator: Sketch 47 (45396) - http://www.bohemiancoding.com/sketch -->
    <title>Shape</title>
    <desc>Created with Sketch.</desc>
    <defs></defs>
    <g id="Templates-模板页面" stroke="none" stroke-width="1" fill="none" fill-rule="evenodd" opacity="0.65">
        <g id="工作台" transform="translate(-39.000000, -254.000000)" fill-rule="nonzero" fill="#FFFFFF">
            <g id="Group-5" transform="translate(33.000000, 249.000000)">
                <g id="copy" transform="translate(1.000000, 0.000000)">
                    <path d="M5.053125,5.696875 C5.053125,6.0015625 5.2953125,6.25 5.59375,6.25 L8.934375,6.25 C9.2328125,6.25 9.475,6.0015625 9.475,5.696875 C9.475,5.3921875 9.2328125,5.14375 8.934375,5.14375 L5.59375,5.14375 C5.2953125,5.1453125 5.053125,5.3921875 5.053125,5.696875 Z M5.1834375,5.7359375 C5.1834375,5.72559267 5.1734375,5.71524784 5.1734375,5.70317888 C5.1734375,5.68076509 5.1834375,5.65662716 5.2034375,5.6359375 C5.1834375,5.65835129 5.1734375,5.68076509 5.1734375,5.70317888 C5.1734375,5.71524784 5.1734375,5.72559267 5.1834375,5.7359375 Z" id="Shape"></path>
                </g>
            </g>
        </g>
    </g>
</svg>