<?xml version="1.0" encoding="UTF-8"?>
<svg width="14px" height="14px" viewBox="0 0 14 14" version="1.1" xmlns="http://www.w3.org/2000/svg" xmlns:xlink="http://www.w3.org/1999/xlink">
    <!-- Generator: Sketch 47 (45396) - http://www.bohemiancoding.com/sketch -->
    <title>Shape</title>
    <desc>Created with Sketch.</desc>
    <defs></defs>
    <g id="Templates-模板页面" stroke="none" stroke-width="1" fill="none" fill-rule="evenodd" opacity="0.65">
        <g id="工作台" transform="translate(-33.000000, -357.000000)" fill-rule="nonzero" fill="#FFFFFF">
            <g id="Group-7" transform="translate(33.000000, 357.000000)">
                <g id="solution">
                    <path d="M12.4042506,0 L1.59574944,0 C0.71409396,0 0,0.7125 0,1.5921875 L0,12.3765625 C0,13.25625 0.71409396,13.96875 1.59574944,13.96875 L5.57024609,13.96875 C5.8787472,13.96875 6.13870246,13.725 6.14340045,13.4171875 C6.14966443,13.1015625 5.89597315,12.84375 5.57964206,12.84375 L1.59574944,12.84375 C1.33736018,12.84375 1.12751678,12.634375 1.12751678,12.3765625 L1.12751678,1.5921875 C1.12751678,1.334375 1.33736018,1.125 1.59574944,1.125 L12.4042506,1.125 C12.6626398,1.125 12.8724832,1.334375 12.8724832,1.5921875 L12.8724832,7.41875 C12.8724832,7.7296875 13.1246085,7.98125 13.4362416,7.98125 L13.4362416,7.98125 C13.7478747,7.98125 14,7.7296875 14,7.41875 L14,1.5921875 C14,0.7125 13.285906,0 12.4042506,0 Z" id="Shape"></path>
                </g>
            </g>
        </g>
    </g>
</svg>