<?xml version="1.0" encoding="UTF-8"?>
<svg width="7px" height="7px" viewBox="0 0 7 7" version="1.1" xmlns="http://www.w3.org/2000/svg" xmlns:xlink="http://www.w3.org/1999/xlink">
    <!-- Generator: Sketch 47 (45396) - http://www.bohemiancoding.com/sketch -->
    <title>Shape</title>
    <desc>Created with Sketch.</desc>
    <defs></defs>
    <g id="Templates-模板页面" stroke="none" stroke-width="1" fill="none" fill-rule="evenodd" opacity="0.65">
        <g id="工作台" transform="translate(-40.000000, -364.000000)" fill-rule="nonzero" fill="#FFFFFF">
            <g id="Group-7" transform="translate(33.000000, 357.000000)">
                <g id="solution">
                    <path d="M12.9821029,11.540625 C12.7174497,11.2765625 12.4167785,11.0609375 12.0926174,10.896875 C12.4136465,10.5234375 12.609396,10.0375 12.609396,9.5078125 C12.609396,8.33125 11.6510067,7.375 10.4718121,7.375 C9.29261745,7.375 8.33422819,8.33125 8.33422819,9.5078125 C8.33422819,10.0578125 8.54407159,10.559375 8.8885906,10.9390625 C8.60201342,11.0921875 8.33579418,11.2859375 8.09932886,11.5171875 C7.59038031,12.0140625 7.25525727,12.6390625 7.12214765,13.3203125 C7.05480984,13.6671875 7.32259508,13.9890625 7.67651007,13.9890625 L7.67651007,13.9890625 C7.9458613,13.9890625 8.17762864,13.7984375 8.23087248,13.534375 C8.44384787,12.4625 9.39284116,11.653125 10.5281879,11.653125 C11.6635347,11.653125 12.612528,12.4640625 12.8255034,13.534375 C12.8787472,13.7984375 13.1089485,13.9890625 13.3798658,13.9890625 L13.3798658,13.9890625 C13.7337808,13.9890625 14.001566,13.6671875 13.9342282,13.321875 C13.8026846,12.65 13.4753915,12.034375 12.9821029,11.540625 Z M10.4718121,10.515625 C9.91431767,10.515625 9.46174497,10.0640625 9.46174497,9.5078125 C9.46174497,8.9515625 9.91431767,8.5 10.4718121,8.5 C11.0293065,8.5 11.4818792,8.9515625 11.4818792,9.5078125 C11.4818792,10.0640625 11.0277405,10.515625 10.4718121,10.515625 Z" id="Shape"></path>
                </g>
            </g>
        </g>
    </g>
</svg>