<?xml version="1.0" encoding="UTF-8"?>
<svg width="14px" height="12px" viewBox="0 0 14 12" version="1.1" xmlns="http://www.w3.org/2000/svg" xmlns:xlink="http://www.w3.org/1999/xlink">
    <!-- Generator: Sketch 47 (45396) - http://www.bohemiancoding.com/sketch -->
    <title>Shape</title>
    <desc>Created with Sketch.</desc>
    <defs></defs>
    <g id="Templates-模板页面" stroke="none" stroke-width="1" fill="none" fill-rule="evenodd" opacity="0.65">
        <g id="工作台" transform="translate(-33.000000, -304.000000)" fill-rule="nonzero" fill="#FFFFFF">
            <g id="Group-6" transform="translate(33.000000, 303.000000)">
                <g id="mail" transform="translate(0.000000, 1.000000)">
                    <path d="M12.8759465,0.0140077821 L1.13496659,0.0140077821 C0.514476615,0.0140077821 0.0124721604,0.515175097 0.0124721604,1.13463035 L0.0124721604,10.8762646 C0.0124721604,11.4957198 0.514476615,11.9968872 1.13496659,11.9968872 L12.8759465,11.9968872 C13.4964365,11.9968872 13.998441,11.4957198 13.998441,10.8762646 L13.998441,1.13463035 C13.998441,0.516731518 13.4948775,0.0140077821 12.8759465,0.0140077821 Z M11.6723831,1.13463035 L7.49265033,4.62256809 L7.46770601,4.64280156 L7.44587973,4.66614786 C7.33986637,4.77821012 7.19643653,4.83891051 7.04209354,4.84046693 C7.04053452,4.84046693 7.04053452,4.84046693 7.0389755,4.84046693 C6.88619154,4.84046693 6.74276169,4.77976654 6.63674833,4.67081712 L6.61492205,4.64902724 L2.34632517,1.13463035 L11.6723831,1.13463035 Z M12.8759465,10.8762646 L1.13496659,10.8762646 C1.13496659,10.8762646 1.13496659,10.8762646 1.13496659,10.8762646 L1.13496659,1.59066148 L5.85567929,5.47392996 C6.17371938,5.78832685 6.59153675,5.96108949 7.04053452,5.96108949 C7.04365256,5.96108949 7.04521158,5.96108949 7.04832962,5.96108949 C7.49888641,5.95953307 7.91982183,5.78365759 8.2363029,5.46459144 L12.8775056,1.5922179 L12.8775056,10.8762646 C12.8759465,10.8762646 12.8759465,10.8762646 12.8759465,10.8762646 Z" id="Shape"></path>
                </g>
            </g>
        </g>
    </g>
</svg>