<?xml version="1.0" encoding="UTF-8"?>
<svg width="12px" height="11px" viewBox="0 0 12 11" version="1.1" xmlns="http://www.w3.org/2000/svg" xmlns:xlink="http://www.w3.org/1999/xlink">
    <!-- Generator: Sketch 47 (45396) - http://www.bohemiancoding.com/sketch -->
    <title>Shape</title>
    <desc>Created with Sketch.</desc>
    <defs></defs>
    <g id="Templates-模板页面" stroke="none" stroke-width="1" fill="none" fill-rule="evenodd" opacity="0.65">
        <g id="工作台" transform="translate(-35.000000, -411.000000)" fill-rule="nonzero" fill="#FFFFFF">
            <g id="Group-8" transform="translate(33.000000, 411.000000)">
                <g id="linechart">
                    <path d="M5.02564103,10.613155 C4.83835006,10.613155 4.66042363,10.5195095 4.55585284,10.3587514 L2.10546265,6.45685619 C1.93534002,6.19777035 2.00713489,5.84972129 2.26778149,5.67959866 C2.52686734,5.50947603 2.87491639,5.5812709 3.04503902,5.8419175 L4.7993311,8.68093645 L5.51103679,5.91527313 C5.5516165,5.75607581 5.66243032,5.62185061 5.81070234,5.55005574 L8.65128205,4.17658863 C8.91036789,4.05172798 9.22251951,4.14225195 9.37391304,4.38729097 L10.8020067,6.70189521 L12.8887402,0.401114827 C12.987068,0.10613155 13.3039019,-0.0530657748 13.5988852,0.0437012263 C13.8938685,0.142028986 14.0530658,0.458862876 13.9562988,0.753846154 L11.490301,8.19866221 C11.4216276,8.40624303 11.239019,8.55451505 11.0220736,8.57948718 C10.8051282,8.60445931 10.5928651,8.50144928 10.4789298,8.31571906 L8.68405797,5.40958751 L6.53489409,6.4490524 L5.5703456,10.1917503 C5.51415831,10.4071349 5.33779264,10.5694537 5.11772575,10.6053512 C5.08651059,10.6100334 5.05529543,10.613155 5.02564103,10.613155 Z" id="Shape"></path>
                </g>
            </g>
        </g>
    </g>
</svg>