<?xml version="1.0" encoding="UTF-8"?>
<svg width="12px" height="12px" viewBox="0 0 12 12" version="1.1" xmlns="http://www.w3.org/2000/svg" xmlns:xlink="http://www.w3.org/1999/xlink">
    <!-- Generator: Sketch 47 (45396) - http://www.bohemiancoding.com/sketch -->
    <title>Shape</title>
    <desc>Created with Sketch.</desc>
    <defs></defs>
    <g id="Templates-模板页面" stroke="none" stroke-width="1" fill="none" fill-rule="evenodd" fill-opacity="0.45">
        <g id="提交失败" transform="translate(-789.000000, -730.000000)" fill-rule="nonzero" fill="#000000">
            <g id="Group-24-Copy-2" transform="translate(730.000000, 696.000000)">
                <g id="Group-2-Copy" transform="translate(0.000000, 30.000000)">
                    <g id="Group" transform="translate(59.000000, 4.000000)">
                        <path d="M11.9785714,5.50714286 C11.7428571,2.61428571 9.38571429,0.257142857 6.49285714,0.0214285714 C2.78571429,-0.278571429 -0.278571429,2.78571429 0.0214285714,6.49285714 C0.257142857,9.40714286 2.61428571,11.7642857 5.50714286,11.9785714 C9.21428571,12.2785714 12.2785714,9.21428571 11.9785714,5.50714286 Z M11.1214286,6.42857143 C10.9285714,8.91428571 8.91428571,10.9285714 6.40714286,11.1428571 C3.17142857,11.3785714 0.492857143,8.61428571 0.9,5.33571429 C1.2,3.04285714 3.04285714,1.2 5.33571429,0.9 C8.61428571,0.492857143 11.3785714,3.17142857 11.1214286,6.42857143 Z" id="Shape"></path>
                    </g>
                </g>
            </g>
        </g>
    </g>
</svg>