<?xml version="1.0" encoding="UTF-8"?>
<svg width="8px" height="8px" viewBox="0 0 8 8" version="1.1" xmlns="http://www.w3.org/2000/svg" xmlns:xlink="http://www.w3.org/1999/xlink">
    <!-- Generator: Sketch 47 (45396) - http://www.bohemiancoding.com/sketch -->
    <title>Shape</title>
    <desc>Created with Sketch.</desc>
    <defs></defs>
    <g id="Templates-模板页面" stroke="none" stroke-width="1" fill="none" fill-rule="evenodd" fill-opacity="0.45">
        <g id="提交失败" transform="translate(-791.000000, -732.000000)" fill-rule="nonzero" fill="#000000">
            <g id="Group-24-Copy-2" transform="translate(730.000000, 696.000000)">
                <g id="Group-2-Copy" transform="translate(0.000000, 30.000000)">
                    <g id="Group" transform="translate(59.000000, 4.000000)">
                        <path d="M6.10714286,8.14285714 C4.92857143,8.14285714 3.96428571,7.17857143 3.96428571,6 C3.96428571,4.82142857 4.92857143,3.85714286 6.10714286,3.85714286 C6.81428571,3.85714286 7.45714286,4.2 7.86428571,4.75714286 L9.08571429,4.75714286 C8.59285714,3.57857143 7.41428571,2.78571429 6.12857143,2.78571429 C4.35,2.78571429 2.91428571,4.22142857 2.91428571,6 C2.91428571,7.77857143 4.35,9.21428571 6.12857143,9.21428571 C7.45714286,9.21428571 8.63571429,8.4 9.12857143,7.17857143 L7.92857143,7.17857143 C7.52142857,7.77857143 6.85714286,8.14285714 6.10714286,8.14285714 Z" id="Shape"></path>
                    </g>
                </g>
            </g>
        </g>
    </g>
</svg>